<?xml version="1.0" encoding="UTF-8" standalone="no" ?>
<!DOCTYPE svg PUBLIC "-//W3C//DTD SVG 1.1//EN" "http://www.w3.org/Graphics/SVG/1.1/DTD/svg11.dtd">
<svg xmlns="http://www.w3.org/2000/svg" xmlns:xlink="http://www.w3.org/1999/xlink" version="1.1" width="1280" height="720" viewBox="-52.38 94.29 1280 720" xml:space="preserve">
<desc>Created with Fabric.js 5.2.4</desc>
<defs>
</defs>
<g transform="matrix(1 0 0 1 640 360)" id="ce5ba15d-7897-4377-a58c-d781d39faed7"  >
<rect style="stroke: none; stroke-width: 1; stroke-dasharray: none; stroke-linecap: butt; stroke-dashoffset: 0; stroke-linejoin: miter; stroke-miterlimit: 4; fill: rgb(255,255,255); fill-rule: nonzero; opacity: 1; visibility: hidden;" vector-effect="non-scaling-stroke"  x="-640" y="-360" rx="0" ry="0" width="1280" height="720" />
</g>
<g transform="matrix(Infinity NaN NaN Infinity 0 0)" id="4c04f08b-ef78-423a-80e2-bb802d306d87"  >
</g>
<g transform="matrix(18.47 0 0 18.47 767.81 264.65)"  >
<g style=""   >
		<g transform="matrix(-6.41 0 0 6.41 -206.91 1.46)" id="SVGRepo_bgCarrier"  >
<path style="stroke: rgb(0,0,0); stroke-width: 0; stroke-dasharray: none; stroke-linecap: butt; stroke-dashoffset: 0; stroke-linejoin: miter; stroke-miterlimit: 4; fill: rgb(126,208,236); fill-rule: nonzero; opacity: 1;" vector-effect="non-scaling-stroke"  transform=" translate(-16.3, -16.23)" d="M 16 27.213014360931183 C 18.467274876287696 26.769213297450612 20.04699001484358 24.650949255893458 22.240219795363252 23.43680435970166 C 25.329688318458665 21.726512773941447 29.884544781179308 21.916050822696633 31.362090382492795 18.708751014515503 C 32.87818328772344 15.417776793612697 31.574327000735114 11.106689591276863 29.16879062234161 8.396995189289255 C 26.933874473325577 5.879494380615222 23.07500325894006 6.276329069632804 19.767693049223784 5.648348423821529 C 17.15607925477778 5.152464211803047 14.676561916772807 4.739408833398424 12.049637991482284 5.146469582926164 C 8.686062853723948 5.667679734269757 4.806626865658651 5.656318913552647 2.6615854751576045 8.29906278351942 C 0.3996976817409146 11.08576430222921 0.1591160393972102 15.164527238886375 1.1089244230459734 18.62569839598586 C 2.004501227448613 21.889245715349197 4.609556380729619 24.390172911132716 7.541214599365945 26.08078789018908 C 10.082172142639052 27.546095427232732 13.113142460551508 27.73228785511593 16 27.213014360931183" stroke-linecap="round" />
</g>
		<g transform="matrix(-5.26 0 0 5.26 -162.25 22.85)" id="SVGRepo_tracerCarrier"  >
<path style="stroke: rgb(255,255,255); stroke-width: 0.37734; stroke-dasharray: none; stroke-linecap: round; stroke-dashoffset: 0; stroke-linejoin: round; stroke-miterlimit: 4; fill: rgb(0,0,0); fill-rule: nonzero; opacity: 1;" vector-effect="non-scaling-stroke"  transform=" translate(-7.59, -20.06)" d="M 7.592 16.86 C 5.821999999999999 16.86 4.388999999999999 18.294 4.388999999999999 20.064 C 4.388999999999999 21.834 5.8229999999999995 23.268 7.591999999999999 23.268 C 9.36 23.268 10.794999999999998 21.834 10.794999999999998 20.064 C 10.794999999999998 18.294 9.36 16.86 7.592 16.86 z M 7.592 21.032 C 7.06 21.032 6.624 20.598 6.624 20.065 C 6.624 19.532000000000004 7.06 19.098000000000003 7.592 19.098000000000003 C 8.123 19.098000000000003 8.558 19.532000000000004 8.558 20.065 C 8.558 20.598 8.124 21.032 7.592 21.032 z" stroke-linecap="round" />
</g>
		<g transform="matrix(-5.26 0 0 5.26 -205.01 -7.37)" id="SVGRepo_tracerCarrier"  >
<path style="stroke: rgb(255,255,255); stroke-width: 0.37734; stroke-dasharray: none; stroke-linecap: round; stroke-dashoffset: 0; stroke-linejoin: round; stroke-miterlimit: 4; fill: rgb(0,0,0); fill-rule: nonzero; opacity: 1;" vector-effect="non-scaling-stroke"  transform=" translate(-15.72, -14.32)" d="M 30.915 17.439 L 30.391 13.177 C 30.287999999999997 12.359 29.572999999999997 11.759 28.747999999999998 11.804 L 27.6 11.868 L 24.036 8.657 C 23.692 8.348 23.249000000000002 8.178 22.787000000000003 8.178 L 15.546000000000003 8.177000000000001 C 13.921000000000003 8.177000000000001 12.345000000000002 8.732000000000001 11.078000000000003 9.750000000000002 L 7.038000000000003 12.996000000000002 L 1.605000000000003 14.354000000000003 C 0.9070000000000031 14.528000000000002 0.41700000000000315 15.156000000000002 0.41700000000000315 15.875000000000004 L 0.41700000000000315 17.441000000000003 C 0.187 17.44 0 17.626 0 17.856 L 0 19.927000000000003 C 0 20.222000000000005 0.239 20.461000000000002 0.534 20.461000000000002 L 3.601 20.461000000000002 C 3.588 20.328000000000003 3.561 20.201 3.561 20.065 C 3.561 17.838 5.365 16.036 7.591 16.036 C 9.817 16.036 11.620000000000001 17.838 11.620000000000001 20.065 C 11.620000000000001 20.202 11.592 20.329 11.579 20.461000000000002 L 20.072000000000003 20.461000000000002 C 20.060000000000002 20.328000000000003 20.033 20.201 20.033 20.065 C 20.033 17.838 21.837 16.036 24.062 16.036 C 26.289 16.036 28.09 17.838 28.09 20.065 C 28.09 20.202 28.064 20.329 28.05 20.461000000000002 L 30.911 20.461000000000002 C 31.206000000000003 20.461000000000002 31.444000000000003 20.222 31.444000000000003 19.927000000000003 L 31.444000000000003 17.974000000000004 C 31.449 17.68 31.21 17.439 30.915 17.439 z M 20.168 12.202 L 10.065999999999999 12.713 L 12 11.158 C 13.051 10.312999999999999 14.357 9.853 15.706 9.853 L 20.168 9.853 L 20.168 12.202 z M 21.846 12.117 L 21.846 9.854 L 22.503 9.854 C 22.731 9.854 22.95 9.937999999999999 23.119 10.091 L 25.181 11.947 L 21.846 12.117 z" stroke-linecap="round" />
</g>
		<g transform="matrix(-5.26 0 0 5.26 -248.88 22.85)" id="SVGRepo_tracerCarrier"  >
<path style="stroke: rgb(255,255,255); stroke-width: 0.37734; stroke-dasharray: none; stroke-linecap: round; stroke-dashoffset: 0; stroke-linejoin: round; stroke-miterlimit: 4; fill: rgb(0,0,0); fill-rule: nonzero; opacity: 1;" vector-effect="non-scaling-stroke"  transform=" translate(-24.06, -20.06)" d="M 24.064 16.86 C 22.294 16.86 20.861 18.294 20.861 20.064 C 20.861 21.834 22.295 23.268 24.064 23.268 C 25.833 23.268 27.267 21.834 27.267 20.064 C 27.267 18.294 25.833 16.86 24.064 16.86 z M 24.064 21.032 C 23.531 21.032 23.097 20.598 23.097 20.065 C 23.097 19.532000000000004 23.531000000000002 19.098000000000003 24.064 19.098000000000003 C 24.595 19.098000000000003 25.031 19.532000000000004 25.031 20.065 C 25.031 20.598 24.596 21.032 24.064 21.032 z" stroke-linecap="round" />
</g>
		<g transform="matrix(-5.26 0 0 5.26 -162.25 22.85)" id="SVGRepo_iconCarrier"  >
<path style="stroke: rgb(0,0,0); stroke-width: 0.00031445; stroke-dasharray: none; stroke-linecap: butt; stroke-dashoffset: 0; stroke-linejoin: miter; stroke-miterlimit: 4; fill: rgb(0,0,0); fill-rule: nonzero; opacity: 1;" vector-effect="non-scaling-stroke"  transform=" translate(-7.59, -20.06)" d="M 7.592 16.86 C 5.821999999999999 16.86 4.388999999999999 18.294 4.388999999999999 20.064 C 4.388999999999999 21.834 5.8229999999999995 23.268 7.591999999999999 23.268 C 9.36 23.268 10.794999999999998 21.834 10.794999999999998 20.064 C 10.794999999999998 18.294 9.36 16.86 7.592 16.86 z M 7.592 21.032 C 7.06 21.032 6.624 20.598 6.624 20.065 C 6.624 19.532000000000004 7.06 19.098000000000003 7.592 19.098000000000003 C 8.123 19.098000000000003 8.558 19.532000000000004 8.558 20.065 C 8.558 20.598 8.124 21.032 7.592 21.032 z" stroke-linecap="round" />
</g>
		<g transform="matrix(-5.26 0 0 5.26 -205.01 -7.37)" id="SVGRepo_iconCarrier"  >
<path style="stroke: rgb(0,0,0); stroke-width: 0.00031445; stroke-dasharray: none; stroke-linecap: butt; stroke-dashoffset: 0; stroke-linejoin: miter; stroke-miterlimit: 4; fill: rgb(0,0,0); fill-rule: nonzero; opacity: 1;" vector-effect="non-scaling-stroke"  transform=" translate(-15.72, -14.32)" d="M 30.915 17.439 L 30.391 13.177 C 30.287999999999997 12.359 29.572999999999997 11.759 28.747999999999998 11.804 L 27.6 11.868 L 24.036 8.657 C 23.692 8.348 23.249000000000002 8.178 22.787000000000003 8.178 L 15.546000000000003 8.177000000000001 C 13.921000000000003 8.177000000000001 12.345000000000002 8.732000000000001 11.078000000000003 9.750000000000002 L 7.038000000000003 12.996000000000002 L 1.605000000000003 14.354000000000003 C 0.9070000000000031 14.528000000000002 0.41700000000000315 15.156000000000002 0.41700000000000315 15.875000000000004 L 0.41700000000000315 17.441000000000003 C 0.187 17.44 0 17.626 0 17.856 L 0 19.927000000000003 C 0 20.222000000000005 0.239 20.461000000000002 0.534 20.461000000000002 L 3.601 20.461000000000002 C 3.588 20.328000000000003 3.561 20.201 3.561 20.065 C 3.561 17.838 5.365 16.036 7.591 16.036 C 9.817 16.036 11.620000000000001 17.838 11.620000000000001 20.065 C 11.620000000000001 20.202 11.592 20.329 11.579 20.461000000000002 L 20.072000000000003 20.461000000000002 C 20.060000000000002 20.328000000000003 20.033 20.201 20.033 20.065 C 20.033 17.838 21.837 16.036 24.062 16.036 C 26.289 16.036 28.09 17.838 28.09 20.065 C 28.09 20.202 28.064 20.329 28.05 20.461000000000002 L 30.911 20.461000000000002 C 31.206000000000003 20.461000000000002 31.444000000000003 20.222 31.444000000000003 19.927000000000003 L 31.444000000000003 17.974000000000004 C 31.449 17.68 31.21 17.439 30.915 17.439 z M 20.168 12.202 L 10.065999999999999 12.713 L 12 11.158 C 13.051 10.312999999999999 14.357 9.853 15.706 9.853 L 20.168 9.853 L 20.168 12.202 z M 21.846 12.117 L 21.846 9.854 L 22.503 9.854 C 22.731 9.854 22.95 9.937999999999999 23.119 10.091 L 25.181 11.947 L 21.846 12.117 z" stroke-linecap="round" />
</g>
		<g transform="matrix(-5.26 0 0 5.26 -248.88 22.85)" id="SVGRepo_iconCarrier"  >
<path style="stroke: rgb(0,0,0); stroke-width: 0.00031445; stroke-dasharray: none; stroke-linecap: butt; stroke-dashoffset: 0; stroke-linejoin: miter; stroke-miterlimit: 4; fill: rgb(0,0,0); fill-rule: nonzero; opacity: 1;" vector-effect="non-scaling-stroke"  transform=" translate(-24.06, -20.06)" d="M 24.064 16.86 C 22.294 16.86 20.861 18.294 20.861 20.064 C 20.861 21.834 22.295 23.268 24.064 23.268 C 25.833 23.268 27.267 21.834 27.267 20.064 C 27.267 18.294 25.833 16.86 24.064 16.86 z M 24.064 21.032 C 23.531 21.032 23.097 20.598 23.097 20.065 C 23.097 19.532000000000004 23.531000000000002 19.098000000000003 24.064 19.098000000000003 C 24.595 19.098000000000003 25.031 19.532000000000004 25.031 20.065 C 25.031 20.598 24.596 21.032 24.064 21.032 z" stroke-linecap="round" />
</g>
		<g transform="matrix(-5.26 0 0 5.26 -430.13 -30.15)" style="" id="Capa_1"  >
		<text xml:space="preserve" font-family="Times New Roman" font-size="16" font-style="normal" font-weight="normal" style="stroke: rgb(0,0,0); stroke-width: 0.00031445; stroke-dasharray: none; stroke-linecap: butt; stroke-dashoffset: 0; stroke-linejoin: miter; stroke-miterlimit: 4; fill: rgb(255,0,0); fill-rule: nonzero; opacity: 1; white-space: pre;" ><tspan x="-53.53" y="5.03" >Car Marketplace</tspan></text>
</g>
</g>
</g>
<g transform="matrix(18.47 0 0 18.47 767.81 264.65)"  >
<g style=""   >
		<g transform="matrix(-6.41 0 0 6.41 -206.91 1.46)" id="SVGRepo_bgCarrier"  >
<path style="stroke: rgb(0,0,0); stroke-width: 0; stroke-dasharray: none; stroke-linecap: butt; stroke-dashoffset: 0; stroke-linejoin: miter; stroke-miterlimit: 4; fill: rgb(126,208,236); fill-rule: nonzero; opacity: 1;" vector-effect="non-scaling-stroke"  transform=" translate(-16.3, -16.23)" d="M 16 27.213014360931183 C 18.467274876287696 26.769213297450612 20.04699001484358 24.650949255893458 22.240219795363252 23.43680435970166 C 25.329688318458665 21.726512773941447 29.884544781179308 21.916050822696633 31.362090382492795 18.708751014515503 C 32.87818328772344 15.417776793612697 31.574327000735114 11.106689591276863 29.16879062234161 8.396995189289255 C 26.933874473325577 5.879494380615222 23.07500325894006 6.276329069632804 19.767693049223784 5.648348423821529 C 17.15607925477778 5.152464211803047 14.676561916772807 4.739408833398424 12.049637991482284 5.146469582926164 C 8.686062853723948 5.667679734269757 4.806626865658651 5.656318913552647 2.6615854751576045 8.29906278351942 C 0.3996976817409146 11.08576430222921 0.1591160393972102 15.164527238886375 1.1089244230459734 18.62569839598586 C 2.004501227448613 21.889245715349197 4.609556380729619 24.390172911132716 7.541214599365945 26.08078789018908 C 10.082172142639052 27.546095427232732 13.113142460551508 27.73228785511593 16 27.213014360931183" stroke-linecap="round" />
</g>
		<g transform="matrix(-5.26 0 0 5.26 -162.25 22.85)" id="SVGRepo_tracerCarrier"  >
<path style="stroke: rgb(255,255,255); stroke-width: 0.37734; stroke-dasharray: none; stroke-linecap: round; stroke-dashoffset: 0; stroke-linejoin: round; stroke-miterlimit: 4; fill: rgb(0,0,0); fill-rule: nonzero; opacity: 1;" vector-effect="non-scaling-stroke"  transform=" translate(-7.59, -20.06)" d="M 7.592 16.86 C 5.821999999999999 16.86 4.388999999999999 18.294 4.388999999999999 20.064 C 4.388999999999999 21.834 5.8229999999999995 23.268 7.591999999999999 23.268 C 9.36 23.268 10.794999999999998 21.834 10.794999999999998 20.064 C 10.794999999999998 18.294 9.36 16.86 7.592 16.86 z M 7.592 21.032 C 7.06 21.032 6.624 20.598 6.624 20.065 C 6.624 19.532000000000004 7.06 19.098000000000003 7.592 19.098000000000003 C 8.123 19.098000000000003 8.558 19.532000000000004 8.558 20.065 C 8.558 20.598 8.124 21.032 7.592 21.032 z" stroke-linecap="round" />
</g>
		<g transform="matrix(-5.26 0 0 5.26 -205.01 -7.37)" id="SVGRepo_tracerCarrier"  >
<path style="stroke: rgb(255,255,255); stroke-width: 0.37734; stroke-dasharray: none; stroke-linecap: round; stroke-dashoffset: 0; stroke-linejoin: round; stroke-miterlimit: 4; fill: rgb(0,0,0); fill-rule: nonzero; opacity: 1;" vector-effect="non-scaling-stroke"  transform=" translate(-15.72, -14.32)" d="M 30.915 17.439 L 30.391 13.177 C 30.287999999999997 12.359 29.572999999999997 11.759 28.747999999999998 11.804 L 27.6 11.868 L 24.036 8.657 C 23.692 8.348 23.249000000000002 8.178 22.787000000000003 8.178 L 15.546000000000003 8.177000000000001 C 13.921000000000003 8.177000000000001 12.345000000000002 8.732000000000001 11.078000000000003 9.750000000000002 L 7.038000000000003 12.996000000000002 L 1.605000000000003 14.354000000000003 C 0.9070000000000031 14.528000000000002 0.41700000000000315 15.156000000000002 0.41700000000000315 15.875000000000004 L 0.41700000000000315 17.441000000000003 C 0.187 17.44 0 17.626 0 17.856 L 0 19.927000000000003 C 0 20.222000000000005 0.239 20.461000000000002 0.534 20.461000000000002 L 3.601 20.461000000000002 C 3.588 20.328000000000003 3.561 20.201 3.561 20.065 C 3.561 17.838 5.365 16.036 7.591 16.036 C 9.817 16.036 11.620000000000001 17.838 11.620000000000001 20.065 C 11.620000000000001 20.202 11.592 20.329 11.579 20.461000000000002 L 20.072000000000003 20.461000000000002 C 20.060000000000002 20.328000000000003 20.033 20.201 20.033 20.065 C 20.033 17.838 21.837 16.036 24.062 16.036 C 26.289 16.036 28.09 17.838 28.09 20.065 C 28.09 20.202 28.064 20.329 28.05 20.461000000000002 L 30.911 20.461000000000002 C 31.206000000000003 20.461000000000002 31.444000000000003 20.222 31.444000000000003 19.927000000000003 L 31.444000000000003 17.974000000000004 C 31.449 17.68 31.21 17.439 30.915 17.439 z M 20.168 12.202 L 10.065999999999999 12.713 L 12 11.158 C 13.051 10.312999999999999 14.357 9.853 15.706 9.853 L 20.168 9.853 L 20.168 12.202 z M 21.846 12.117 L 21.846 9.854 L 22.503 9.854 C 22.731 9.854 22.95 9.937999999999999 23.119 10.091 L 25.181 11.947 L 21.846 12.117 z" stroke-linecap="round" />
</g>
		<g transform="matrix(-5.26 0 0 5.26 -248.88 22.85)" id="SVGRepo_tracerCarrier"  >
<path style="stroke: rgb(255,255,255); stroke-width: 0.37734; stroke-dasharray: none; stroke-linecap: round; stroke-dashoffset: 0; stroke-linejoin: round; stroke-miterlimit: 4; fill: rgb(0,0,0); fill-rule: nonzero; opacity: 1;" vector-effect="non-scaling-stroke"  transform=" translate(-24.06, -20.06)" d="M 24.064 16.86 C 22.294 16.86 20.861 18.294 20.861 20.064 C 20.861 21.834 22.295 23.268 24.064 23.268 C 25.833 23.268 27.267 21.834 27.267 20.064 C 27.267 18.294 25.833 16.86 24.064 16.86 z M 24.064 21.032 C 23.531 21.032 23.097 20.598 23.097 20.065 C 23.097 19.532000000000004 23.531000000000002 19.098000000000003 24.064 19.098000000000003 C 24.595 19.098000000000003 25.031 19.532000000000004 25.031 20.065 C 25.031 20.598 24.596 21.032 24.064 21.032 z" stroke-linecap="round" />
</g>
		<g transform="matrix(-5.26 0 0 5.26 -162.25 22.85)" id="SVGRepo_iconCarrier"  >
<path style="stroke: rgb(0,0,0); stroke-width: 0.00031445; stroke-dasharray: none; stroke-linecap: butt; stroke-dashoffset: 0; stroke-linejoin: miter; stroke-miterlimit: 4; fill: rgb(0,0,0); fill-rule: nonzero; opacity: 1;" vector-effect="non-scaling-stroke"  transform=" translate(-7.59, -20.06)" d="M 7.592 16.86 C 5.821999999999999 16.86 4.388999999999999 18.294 4.388999999999999 20.064 C 4.388999999999999 21.834 5.8229999999999995 23.268 7.591999999999999 23.268 C 9.36 23.268 10.794999999999998 21.834 10.794999999999998 20.064 C 10.794999999999998 18.294 9.36 16.86 7.592 16.86 z M 7.592 21.032 C 7.06 21.032 6.624 20.598 6.624 20.065 C 6.624 19.532000000000004 7.06 19.098000000000003 7.592 19.098000000000003 C 8.123 19.098000000000003 8.558 19.532000000000004 8.558 20.065 C 8.558 20.598 8.124 21.032 7.592 21.032 z" stroke-linecap="round" />
</g>
		<g transform="matrix(-5.26 0 0 5.26 -205.01 -7.37)" id="SVGRepo_iconCarrier"  >
<path style="stroke: rgb(0,0,0); stroke-width: 0.00031445; stroke-dasharray: none; stroke-linecap: butt; stroke-dashoffset: 0; stroke-linejoin: miter; stroke-miterlimit: 4; fill: rgb(0,0,0); fill-rule: nonzero; opacity: 1;" vector-effect="non-scaling-stroke"  transform=" translate(-15.72, -14.32)" d="M 30.915 17.439 L 30.391 13.177 C 30.287999999999997 12.359 29.572999999999997 11.759 28.747999999999998 11.804 L 27.6 11.868 L 24.036 8.657 C 23.692 8.348 23.249000000000002 8.178 22.787000000000003 8.178 L 15.546000000000003 8.177000000000001 C 13.921000000000003 8.177000000000001 12.345000000000002 8.732000000000001 11.078000000000003 9.750000000000002 L 7.038000000000003 12.996000000000002 L 1.605000000000003 14.354000000000003 C 0.9070000000000031 14.528000000000002 0.41700000000000315 15.156000000000002 0.41700000000000315 15.875000000000004 L 0.41700000000000315 17.441000000000003 C 0.187 17.44 0 17.626 0 17.856 L 0 19.927000000000003 C 0 20.222000000000005 0.239 20.461000000000002 0.534 20.461000000000002 L 3.601 20.461000000000002 C 3.588 20.328000000000003 3.561 20.201 3.561 20.065 C 3.561 17.838 5.365 16.036 7.591 16.036 C 9.817 16.036 11.620000000000001 17.838 11.620000000000001 20.065 C 11.620000000000001 20.202 11.592 20.329 11.579 20.461000000000002 L 20.072000000000003 20.461000000000002 C 20.060000000000002 20.328000000000003 20.033 20.201 20.033 20.065 C 20.033 17.838 21.837 16.036 24.062 16.036 C 26.289 16.036 28.09 17.838 28.09 20.065 C 28.09 20.202 28.064 20.329 28.05 20.461000000000002 L 30.911 20.461000000000002 C 31.206000000000003 20.461000000000002 31.444000000000003 20.222 31.444000000000003 19.927000000000003 L 31.444000000000003 17.974000000000004 C 31.449 17.68 31.21 17.439 30.915 17.439 z M 20.168 12.202 L 10.065999999999999 12.713 L 12 11.158 C 13.051 10.312999999999999 14.357 9.853 15.706 9.853 L 20.168 9.853 L 20.168 12.202 z M 21.846 12.117 L 21.846 9.854 L 22.503 9.854 C 22.731 9.854 22.95 9.937999999999999 23.119 10.091 L 25.181 11.947 L 21.846 12.117 z" stroke-linecap="round" />
</g>
		<g transform="matrix(-5.26 0 0 5.26 -248.88 22.85)" id="SVGRepo_iconCarrier"  >
<path style="stroke: rgb(0,0,0); stroke-width: 0.00031445; stroke-dasharray: none; stroke-linecap: butt; stroke-dashoffset: 0; stroke-linejoin: miter; stroke-miterlimit: 4; fill: rgb(0,0,0); fill-rule: nonzero; opacity: 1;" vector-effect="non-scaling-stroke"  transform=" translate(-24.06, -20.06)" d="M 24.064 16.86 C 22.294 16.86 20.861 18.294 20.861 20.064 C 20.861 21.834 22.295 23.268 24.064 23.268 C 25.833 23.268 27.267 21.834 27.267 20.064 C 27.267 18.294 25.833 16.86 24.064 16.86 z M 24.064 21.032 C 23.531 21.032 23.097 20.598 23.097 20.065 C 23.097 19.532000000000004 23.531000000000002 19.098000000000003 24.064 19.098000000000003 C 24.595 19.098000000000003 25.031 19.532000000000004 25.031 20.065 C 25.031 20.598 24.596 21.032 24.064 21.032 z" stroke-linecap="round" />
</g>
		<g transform="matrix(-5.26 0 0 5.26 -430.13 -30.15)" style="" id="Capa_1"  >
		<text xml:space="preserve" font-family="Times New Roman" font-size="16" font-style="normal" font-weight="normal" style="stroke: rgb(0,0,0); stroke-width: 0.00031445; stroke-dasharray: none; stroke-linecap: butt; stroke-dashoffset: 0; stroke-linejoin: miter; stroke-miterlimit: 4; fill: rgb(255,0,0); fill-rule: nonzero; opacity: 1; white-space: pre;" ><tspan x="-53.53" y="5.03" >Car Marketplace</tspan></text>
</g>
</g>
</g>
<g transform="matrix(18.47 0 0 18.47 515.47 448.79)"  >
<g style="opacity: 0.99;"   >
		<g transform="matrix(-6.41 0 0 6.41 -206.91 1.46)" id="SVGRepo_bgCarrier"  >
<path style="stroke: rgb(0,0,0); stroke-width: 0; stroke-dasharray: none; stroke-linecap: butt; stroke-dashoffset: 0; stroke-linejoin: miter; stroke-miterlimit: 4; fill: rgb(126,208,236); fill-rule: nonzero; opacity: 1;" vector-effect="non-scaling-stroke"  transform=" translate(-16.3, -16.23)" d="M 16 27.213014360931183 C 18.467274876287696 26.769213297450612 20.04699001484358 24.650949255893458 22.240219795363252 23.43680435970166 C 25.329688318458665 21.726512773941447 29.884544781179308 21.916050822696633 31.362090382492795 18.708751014515503 C 32.87818328772344 15.417776793612697 31.574327000735114 11.106689591276863 29.16879062234161 8.396995189289255 C 26.933874473325577 5.879494380615222 23.07500325894006 6.276329069632804 19.767693049223784 5.648348423821529 C 17.15607925477778 5.152464211803047 14.676561916772807 4.739408833398424 12.049637991482284 5.146469582926164 C 8.686062853723948 5.667679734269757 4.806626865658651 5.656318913552647 2.6615854751576045 8.29906278351942 C 0.3996976817409146 11.08576430222921 0.1591160393972102 15.164527238886375 1.1089244230459734 18.62569839598586 C 2.004501227448613 21.889245715349197 4.609556380729619 24.390172911132716 7.541214599365945 26.08078789018908 C 10.082172142639052 27.546095427232732 13.113142460551508 27.73228785511593 16 27.213014360931183" stroke-linecap="round" />
</g>
		<g transform="matrix(-5.26 0 0 5.26 -162.25 22.85)" id="SVGRepo_tracerCarrier"  >
<path style="stroke: rgb(255,255,255); stroke-width: 0.37734; stroke-dasharray: none; stroke-linecap: round; stroke-dashoffset: 0; stroke-linejoin: round; stroke-miterlimit: 4; fill: rgb(0,0,0); fill-rule: nonzero; opacity: 1;" vector-effect="non-scaling-stroke"  transform=" translate(-7.59, -20.06)" d="M 7.592 16.86 C 5.821999999999999 16.86 4.388999999999999 18.294 4.388999999999999 20.064 C 4.388999999999999 21.834 5.8229999999999995 23.268 7.591999999999999 23.268 C 9.36 23.268 10.794999999999998 21.834 10.794999999999998 20.064 C 10.794999999999998 18.294 9.36 16.86 7.592 16.86 z M 7.592 21.032 C 7.06 21.032 6.624 20.598 6.624 20.065 C 6.624 19.532000000000004 7.06 19.098000000000003 7.592 19.098000000000003 C 8.123 19.098000000000003 8.558 19.532000000000004 8.558 20.065 C 8.558 20.598 8.124 21.032 7.592 21.032 z" stroke-linecap="round" />
</g>
		<g transform="matrix(-5.26 0 0 5.26 -205.01 -7.37)" id="SVGRepo_tracerCarrier"  >
<path style="stroke: rgb(255,255,255); stroke-width: 0.37734; stroke-dasharray: none; stroke-linecap: round; stroke-dashoffset: 0; stroke-linejoin: round; stroke-miterlimit: 4; fill: rgb(0,0,0); fill-rule: nonzero; opacity: 1;" vector-effect="non-scaling-stroke"  transform=" translate(-15.72, -14.32)" d="M 30.915 17.439 L 30.391 13.177 C 30.287999999999997 12.359 29.572999999999997 11.759 28.747999999999998 11.804 L 27.6 11.868 L 24.036 8.657 C 23.692 8.348 23.249000000000002 8.178 22.787000000000003 8.178 L 15.546000000000003 8.177000000000001 C 13.921000000000003 8.177000000000001 12.345000000000002 8.732000000000001 11.078000000000003 9.750000000000002 L 7.038000000000003 12.996000000000002 L 1.605000000000003 14.354000000000003 C 0.9070000000000031 14.528000000000002 0.41700000000000315 15.156000000000002 0.41700000000000315 15.875000000000004 L 0.41700000000000315 17.441000000000003 C 0.187 17.44 0 17.626 0 17.856 L 0 19.927000000000003 C 0 20.222000000000005 0.239 20.461000000000002 0.534 20.461000000000002 L 3.601 20.461000000000002 C 3.588 20.328000000000003 3.561 20.201 3.561 20.065 C 3.561 17.838 5.365 16.036 7.591 16.036 C 9.817 16.036 11.620000000000001 17.838 11.620000000000001 20.065 C 11.620000000000001 20.202 11.592 20.329 11.579 20.461000000000002 L 20.072000000000003 20.461000000000002 C 20.060000000000002 20.328000000000003 20.033 20.201 20.033 20.065 C 20.033 17.838 21.837 16.036 24.062 16.036 C 26.289 16.036 28.09 17.838 28.09 20.065 C 28.09 20.202 28.064 20.329 28.05 20.461000000000002 L 30.911 20.461000000000002 C 31.206000000000003 20.461000000000002 31.444000000000003 20.222 31.444000000000003 19.927000000000003 L 31.444000000000003 17.974000000000004 C 31.449 17.68 31.21 17.439 30.915 17.439 z M 20.168 12.202 L 10.065999999999999 12.713 L 12 11.158 C 13.051 10.312999999999999 14.357 9.853 15.706 9.853 L 20.168 9.853 L 20.168 12.202 z M 21.846 12.117 L 21.846 9.854 L 22.503 9.854 C 22.731 9.854 22.95 9.937999999999999 23.119 10.091 L 25.181 11.947 L 21.846 12.117 z" stroke-linecap="round" />
</g>
		<g transform="matrix(-5.26 0 0 5.26 -248.88 22.85)" id="SVGRepo_tracerCarrier"  >
<path style="stroke: rgb(255,255,255); stroke-width: 0.37734; stroke-dasharray: none; stroke-linecap: round; stroke-dashoffset: 0; stroke-linejoin: round; stroke-miterlimit: 4; fill: rgb(0,0,0); fill-rule: nonzero; opacity: 1;" vector-effect="non-scaling-stroke"  transform=" translate(-24.06, -20.06)" d="M 24.064 16.86 C 22.294 16.86 20.861 18.294 20.861 20.064 C 20.861 21.834 22.295 23.268 24.064 23.268 C 25.833 23.268 27.267 21.834 27.267 20.064 C 27.267 18.294 25.833 16.86 24.064 16.86 z M 24.064 21.032 C 23.531 21.032 23.097 20.598 23.097 20.065 C 23.097 19.532000000000004 23.531000000000002 19.098000000000003 24.064 19.098000000000003 C 24.595 19.098000000000003 25.031 19.532000000000004 25.031 20.065 C 25.031 20.598 24.596 21.032 24.064 21.032 z" stroke-linecap="round" />
</g>
		<g transform="matrix(-5.26 0 0 5.26 -162.25 22.85)" id="SVGRepo_iconCarrier"  >
<path style="stroke: rgb(0,0,0); stroke-width: 0.00031445; stroke-dasharray: none; stroke-linecap: butt; stroke-dashoffset: 0; stroke-linejoin: miter; stroke-miterlimit: 4; fill: rgb(0,0,0); fill-rule: nonzero; opacity: 1;" vector-effect="non-scaling-stroke"  transform=" translate(-7.59, -20.06)" d="M 7.592 16.86 C 5.821999999999999 16.86 4.388999999999999 18.294 4.388999999999999 20.064 C 4.388999999999999 21.834 5.8229999999999995 23.268 7.591999999999999 23.268 C 9.36 23.268 10.794999999999998 21.834 10.794999999999998 20.064 C 10.794999999999998 18.294 9.36 16.86 7.592 16.86 z M 7.592 21.032 C 7.06 21.032 6.624 20.598 6.624 20.065 C 6.624 19.532000000000004 7.06 19.098000000000003 7.592 19.098000000000003 C 8.123 19.098000000000003 8.558 19.532000000000004 8.558 20.065 C 8.558 20.598 8.124 21.032 7.592 21.032 z" stroke-linecap="round" />
</g>
		<g transform="matrix(-5.26 0 0 5.26 -205.01 -7.37)" id="SVGRepo_iconCarrier"  >
<path style="stroke: rgb(0,0,0); stroke-width: 0.00031445; stroke-dasharray: none; stroke-linecap: butt; stroke-dashoffset: 0; stroke-linejoin: miter; stroke-miterlimit: 4; fill: rgb(0,0,0); fill-rule: nonzero; opacity: 1;" vector-effect="non-scaling-stroke"  transform=" translate(-15.72, -14.32)" d="M 30.915 17.439 L 30.391 13.177 C 30.287999999999997 12.359 29.572999999999997 11.759 28.747999999999998 11.804 L 27.6 11.868 L 24.036 8.657 C 23.692 8.348 23.249000000000002 8.178 22.787000000000003 8.178 L 15.546000000000003 8.177000000000001 C 13.921000000000003 8.177000000000001 12.345000000000002 8.732000000000001 11.078000000000003 9.750000000000002 L 7.038000000000003 12.996000000000002 L 1.605000000000003 14.354000000000003 C 0.9070000000000031 14.528000000000002 0.41700000000000315 15.156000000000002 0.41700000000000315 15.875000000000004 L 0.41700000000000315 17.441000000000003 C 0.187 17.44 0 17.626 0 17.856 L 0 19.927000000000003 C 0 20.222000000000005 0.239 20.461000000000002 0.534 20.461000000000002 L 3.601 20.461000000000002 C 3.588 20.328000000000003 3.561 20.201 3.561 20.065 C 3.561 17.838 5.365 16.036 7.591 16.036 C 9.817 16.036 11.620000000000001 17.838 11.620000000000001 20.065 C 11.620000000000001 20.202 11.592 20.329 11.579 20.461000000000002 L 20.072000000000003 20.461000000000002 C 20.060000000000002 20.328000000000003 20.033 20.201 20.033 20.065 C 20.033 17.838 21.837 16.036 24.062 16.036 C 26.289 16.036 28.09 17.838 28.09 20.065 C 28.09 20.202 28.064 20.329 28.05 20.461000000000002 L 30.911 20.461000000000002 C 31.206000000000003 20.461000000000002 31.444000000000003 20.222 31.444000000000003 19.927000000000003 L 31.444000000000003 17.974000000000004 C 31.449 17.68 31.21 17.439 30.915 17.439 z M 20.168 12.202 L 10.065999999999999 12.713 L 12 11.158 C 13.051 10.312999999999999 14.357 9.853 15.706 9.853 L 20.168 9.853 L 20.168 12.202 z M 21.846 12.117 L 21.846 9.854 L 22.503 9.854 C 22.731 9.854 22.95 9.937999999999999 23.119 10.091 L 25.181 11.947 L 21.846 12.117 z" stroke-linecap="round" />
</g>
		<g transform="matrix(-5.26 0 0 5.26 -248.88 22.85)" id="SVGRepo_iconCarrier"  >
<path style="stroke: rgb(0,0,0); stroke-width: 0.00031445; stroke-dasharray: none; stroke-linecap: butt; stroke-dashoffset: 0; stroke-linejoin: miter; stroke-miterlimit: 4; fill: rgb(0,0,0); fill-rule: nonzero; opacity: 1;" vector-effect="non-scaling-stroke"  transform=" translate(-24.06, -20.06)" d="M 24.064 16.86 C 22.294 16.86 20.861 18.294 20.861 20.064 C 20.861 21.834 22.295 23.268 24.064 23.268 C 25.833 23.268 27.267 21.834 27.267 20.064 C 27.267 18.294 25.833 16.86 24.064 16.86 z M 24.064 21.032 C 23.531 21.032 23.097 20.598 23.097 20.065 C 23.097 19.532000000000004 23.531000000000002 19.098000000000003 24.064 19.098000000000003 C 24.595 19.098000000000003 25.031 19.532000000000004 25.031 20.065 C 25.031 20.598 24.596 21.032 24.064 21.032 z" stroke-linecap="round" />
</g>
</g>
</g>
<g transform="matrix(1.03 0 0 1.03 640 456.42)" style="" id="db53b46b-c32e-427b-9849-2b354e41bc15"  >
		<text xml:space="preserve" font-family="Raleway" font-size="103" font-style="normal" font-weight="900" style="stroke: none; stroke-width: 1; stroke-dasharray: none; stroke-linecap: butt; stroke-dashoffset: 0; stroke-linejoin: miter; stroke-miterlimit: 4; fill: rgb(0,0,0); fill-rule: nonzero; opacity: 1; white-space: pre;" ><tspan x="-416.58" y="-84.03" >C</tspan><tspan x="-345.4" y="-84.03" >a</tspan><tspan x="-283.71" y="-84.03" >r</tspan><tspan x="-416.58" y="148.75" >M</tspan><tspan x="-329.44" y="148.75" >a</tspan><tspan x="-267.74" y="148.75" >r</tspan><tspan x="-224.89" y="148.75" >k</tspan><tspan x="-167.63" y="148.75" >e</tspan><tspan x="-105.52" y="148.75" >t</tspan><tspan x="-61.95" y="148.75" >p</tspan><tspan x="4.69" y="148.75" >l</tspan><tspan x="41.26" y="148.75" >a</tspan><tspan x="102.96" y="148.75" >c</tspan><tspan x="161.87" y="148.75" >e</tspan></text>
</g>
<g transform="matrix(1.77 0 0 1.77 621.81 377.79)"  >
<g style="" vector-effect="non-scaling-stroke"   >
		<g transform="matrix(-6.41 0 0 6.41 0 0)"  >
<path style="stroke: rgb(0,0,0); stroke-width: 0; stroke-dasharray: none; stroke-linecap: butt; stroke-dashoffset: 0; stroke-linejoin: miter; stroke-miterlimit: 4; fill: rgb(126,208,236); fill-rule: nonzero; opacity: 1;" vector-effect="non-scaling-stroke"  transform=" translate(-16.3, -16.23)" d="M 16 27.213014360931183 C 18.467274876287696 26.769213297450612 20.04699001484358 24.650949255893458 22.240219795363252 23.43680435970166 C 25.329688318458665 21.726512773941447 29.884544781179308 21.916050822696633 31.362090382492795 18.708751014515503 C 32.87818328772344 15.417776793612697 31.574327000735114 11.106689591276863 29.16879062234161 8.396995189289255 C 26.933874473325577 5.879494380615222 23.07500325894006 6.276329069632804 19.767693049223784 5.648348423821529 C 17.15607925477778 5.152464211803047 14.676561916772807 4.739408833398424 12.049637991482284 5.146469582926164 C 8.686062853723948 5.667679734269757 4.806626865658651 5.656318913552647 2.6615854751576045 8.29906278351942 C 0.3996976817409146 11.08576430222921 0.1591160393972102 15.164527238886375 1.1089244230459734 18.62569839598586 C 2.004501227448613 21.889245715349197 4.609556380729619 24.390172911132716 7.541214599365945 26.08078789018908 C 10.082172142639052 27.546095427232732 13.113142460551508 27.73228785511593 16 27.213014360931183" stroke-linecap="round" />
</g>
		<g transform="matrix(-5.26 0 0 5.26 44.66 21.38)"  >
<path style="stroke: rgb(255,255,255); stroke-width: 0.37734; stroke-dasharray: none; stroke-linecap: round; stroke-dashoffset: 0; stroke-linejoin: round; stroke-miterlimit: 4; fill: rgb(0,0,0); fill-rule: nonzero; opacity: 1;" vector-effect="non-scaling-stroke"  transform=" translate(-7.59, -20.06)" d="M 7.592 16.86 C 5.821999999999999 16.86 4.388999999999999 18.294 4.388999999999999 20.064 C 4.388999999999999 21.834 5.8229999999999995 23.268 7.591999999999999 23.268 C 9.36 23.268 10.794999999999998 21.834 10.794999999999998 20.064 C 10.794999999999998 18.294 9.36 16.86 7.592 16.86 z M 7.592 21.032 C 7.06 21.032 6.624 20.598 6.624 20.065 C 6.624 19.532000000000004 7.06 19.098000000000003 7.592 19.098000000000003 C 8.123 19.098000000000003 8.558 19.532000000000004 8.558 20.065 C 8.558 20.598 8.124 21.032 7.592 21.032 z" stroke-linecap="round" />
</g>
		<g transform="matrix(-5.26 0 0 5.26 1.9 -8.83)"  >
<path style="stroke: rgb(255,255,255); stroke-width: 0.37734; stroke-dasharray: none; stroke-linecap: round; stroke-dashoffset: 0; stroke-linejoin: round; stroke-miterlimit: 4; fill: rgb(0,0,0); fill-rule: nonzero; opacity: 1;" vector-effect="non-scaling-stroke"  transform=" translate(-15.72, -14.32)" d="M 30.915 17.439 L 30.391 13.177 C 30.287999999999997 12.359 29.572999999999997 11.759 28.747999999999998 11.804 L 27.6 11.868 L 24.036 8.657 C 23.692 8.348 23.249000000000002 8.178 22.787000000000003 8.178 L 15.546000000000003 8.177000000000001 C 13.921000000000003 8.177000000000001 12.345000000000002 8.732000000000001 11.078000000000003 9.750000000000002 L 7.038000000000003 12.996000000000002 L 1.605000000000003 14.354000000000003 C 0.9070000000000031 14.528000000000002 0.41700000000000315 15.156000000000002 0.41700000000000315 15.875000000000004 L 0.41700000000000315 17.441000000000003 C 0.187 17.44 0 17.626 0 17.856 L 0 19.927000000000003 C 0 20.222000000000005 0.239 20.461000000000002 0.534 20.461000000000002 L 3.601 20.461000000000002 C 3.588 20.328000000000003 3.561 20.201 3.561 20.065 C 3.561 17.838 5.365 16.036 7.591 16.036 C 9.817 16.036 11.620000000000001 17.838 11.620000000000001 20.065 C 11.620000000000001 20.202 11.592 20.329 11.579 20.461000000000002 L 20.072000000000003 20.461000000000002 C 20.060000000000002 20.328000000000003 20.033 20.201 20.033 20.065 C 20.033 17.838 21.837 16.036 24.062 16.036 C 26.289 16.036 28.09 17.838 28.09 20.065 C 28.09 20.202 28.064 20.329 28.05 20.461000000000002 L 30.911 20.461000000000002 C 31.206000000000003 20.461000000000002 31.444000000000003 20.222 31.444000000000003 19.927000000000003 L 31.444000000000003 17.974000000000004 C 31.449 17.68 31.21 17.439 30.915 17.439 z M 20.168 12.202 L 10.065999999999999 12.713 L 12 11.158 C 13.051 10.312999999999999 14.357 9.853 15.706 9.853 L 20.168 9.853 L 20.168 12.202 z M 21.846 12.117 L 21.846 9.854 L 22.503 9.854 C 22.731 9.854 22.95 9.937999999999999 23.119 10.091 L 25.181 11.947 L 21.846 12.117 z" stroke-linecap="round" />
</g>
		<g transform="matrix(-5.26 0 0 5.26 -41.97 21.38)"  >
<path style="stroke: rgb(255,255,255); stroke-width: 0.37734; stroke-dasharray: none; stroke-linecap: round; stroke-dashoffset: 0; stroke-linejoin: round; stroke-miterlimit: 4; fill: rgb(0,0,0); fill-rule: nonzero; opacity: 1;" vector-effect="non-scaling-stroke"  transform=" translate(-24.06, -20.06)" d="M 24.064 16.86 C 22.294 16.86 20.861 18.294 20.861 20.064 C 20.861 21.834 22.295 23.268 24.064 23.268 C 25.833 23.268 27.267 21.834 27.267 20.064 C 27.267 18.294 25.833 16.86 24.064 16.86 z M 24.064 21.032 C 23.531 21.032 23.097 20.598 23.097 20.065 C 23.097 19.532000000000004 23.531000000000002 19.098000000000003 24.064 19.098000000000003 C 24.595 19.098000000000003 25.031 19.532000000000004 25.031 20.065 C 25.031 20.598 24.596 21.032 24.064 21.032 z" stroke-linecap="round" />
</g>
		<g transform="matrix(-5.26 0 0 5.26 44.66 21.38)"  >
<path style="stroke: rgb(0,0,0); stroke-width: 0.00031445; stroke-dasharray: none; stroke-linecap: butt; stroke-dashoffset: 0; stroke-linejoin: miter; stroke-miterlimit: 4; fill: rgb(0,0,0); fill-rule: nonzero; opacity: 1;" vector-effect="non-scaling-stroke"  transform=" translate(-7.59, -20.06)" d="M 7.592 16.86 C 5.821999999999999 16.86 4.388999999999999 18.294 4.388999999999999 20.064 C 4.388999999999999 21.834 5.8229999999999995 23.268 7.591999999999999 23.268 C 9.36 23.268 10.794999999999998 21.834 10.794999999999998 20.064 C 10.794999999999998 18.294 9.36 16.86 7.592 16.86 z M 7.592 21.032 C 7.06 21.032 6.624 20.598 6.624 20.065 C 6.624 19.532000000000004 7.06 19.098000000000003 7.592 19.098000000000003 C 8.123 19.098000000000003 8.558 19.532000000000004 8.558 20.065 C 8.558 20.598 8.124 21.032 7.592 21.032 z" stroke-linecap="round" />
</g>
		<g transform="matrix(-5.26 0 0 5.26 1.9 -8.83)"  >
<path style="stroke: rgb(0,0,0); stroke-width: 0.00031445; stroke-dasharray: none; stroke-linecap: butt; stroke-dashoffset: 0; stroke-linejoin: miter; stroke-miterlimit: 4; fill: rgb(0,0,0); fill-rule: nonzero; opacity: 1;" vector-effect="non-scaling-stroke"  transform=" translate(-15.72, -14.32)" d="M 30.915 17.439 L 30.391 13.177 C 30.287999999999997 12.359 29.572999999999997 11.759 28.747999999999998 11.804 L 27.6 11.868 L 24.036 8.657 C 23.692 8.348 23.249000000000002 8.178 22.787000000000003 8.178 L 15.546000000000003 8.177000000000001 C 13.921000000000003 8.177000000000001 12.345000000000002 8.732000000000001 11.078000000000003 9.750000000000002 L 7.038000000000003 12.996000000000002 L 1.605000000000003 14.354000000000003 C 0.9070000000000031 14.528000000000002 0.41700000000000315 15.156000000000002 0.41700000000000315 15.875000000000004 L 0.41700000000000315 17.441000000000003 C 0.187 17.44 0 17.626 0 17.856 L 0 19.927000000000003 C 0 20.222000000000005 0.239 20.461000000000002 0.534 20.461000000000002 L 3.601 20.461000000000002 C 3.588 20.328000000000003 3.561 20.201 3.561 20.065 C 3.561 17.838 5.365 16.036 7.591 16.036 C 9.817 16.036 11.620000000000001 17.838 11.620000000000001 20.065 C 11.620000000000001 20.202 11.592 20.329 11.579 20.461000000000002 L 20.072000000000003 20.461000000000002 C 20.060000000000002 20.328000000000003 20.033 20.201 20.033 20.065 C 20.033 17.838 21.837 16.036 24.062 16.036 C 26.289 16.036 28.09 17.838 28.09 20.065 C 28.09 20.202 28.064 20.329 28.05 20.461000000000002 L 30.911 20.461000000000002 C 31.206000000000003 20.461000000000002 31.444000000000003 20.222 31.444000000000003 19.927000000000003 L 31.444000000000003 17.974000000000004 C 31.449 17.68 31.21 17.439 30.915 17.439 z M 20.168 12.202 L 10.065999999999999 12.713 L 12 11.158 C 13.051 10.312999999999999 14.357 9.853 15.706 9.853 L 20.168 9.853 L 20.168 12.202 z M 21.846 12.117 L 21.846 9.854 L 22.503 9.854 C 22.731 9.854 22.95 9.937999999999999 23.119 10.091 L 25.181 11.947 L 21.846 12.117 z" stroke-linecap="round" />
</g>
		<g transform="matrix(-5.26 0 0 5.26 -41.97 21.38)"  >
<path style="stroke: rgb(0,0,0); stroke-width: 0.00031445; stroke-dasharray: none; stroke-linecap: butt; stroke-dashoffset: 0; stroke-linejoin: miter; stroke-miterlimit: 4; fill: rgb(0,0,0); fill-rule: nonzero; opacity: 1;" vector-effect="non-scaling-stroke"  transform=" translate(-24.06, -20.06)" d="M 24.064 16.86 C 22.294 16.86 20.861 18.294 20.861 20.064 C 20.861 21.834 22.295 23.268 24.064 23.268 C 25.833 23.268 27.267 21.834 27.267 20.064 C 27.267 18.294 25.833 16.86 24.064 16.86 z M 24.064 21.032 C 23.531 21.032 23.097 20.598 23.097 20.065 C 23.097 19.532000000000004 23.531000000000002 19.098000000000003 24.064 19.098000000000003 C 24.595 19.098000000000003 25.031 19.532000000000004 25.031 20.065 C 25.031 20.598 24.596 21.032 24.064 21.032 z" stroke-linecap="round" />
</g>
</g>
</g>
</svg>